<svg xmlns="http://www.w3.org/2000/svg" viewBox="0 0 21.3 21.39"><defs><style>.cls-1{fill:#f70606;stroke:#f90000;stroke-width:3px;}</style></defs><title>Asset 1</title><g id="Layer_2" data-name="Layer 2"><g id="Layer_1-2" data-name="Layer 1"><g id="Button"><g id="add"><g id="Group_15" data-name="Group 15"><g id="Group_14" data-name="Group 14"><path id="Path_77" data-name="Path 77" class="cls-1" d="M19.4,1.79a1,1,0,0,0-1.4,0L2,18.09a1,1,0,0,0,1.2,1.6,1.26,1.26,0,0,0,.2-.2l16-16.2A1.09,1.09,0,0,0,19.4,1.79Z"/></g></g><g id="Group_17" data-name="Group 17"><g id="Group_16" data-name="Group 16"><path id="Path_78" data-name="Path 78" class="cls-1" d="M19.6,18,3.3,2a1,1,0,0,0-1.4-.2,1,1,0,0,0-.2,1.4,1.26,1.26,0,0,0,.2.2l16.3,16a1,1,0,0,0,1.4-.2A1,1,0,0,0,19.6,18Z"/></g></g></g></g></g></g></svg>