<?xml version="1.0" encoding="utf-8"?>
<!-- Generator: Adobe Illustrator 24.0.1, SVG Export Plug-In . SVG Version: 6.00 Build 0)  -->
<svg version="1.1" id="Layer_1" xmlns="http://www.w3.org/2000/svg" xmlns:xlink="http://www.w3.org/1999/xlink" x="0px" y="0px"
	 viewBox="0 0 80 80" style="enable-background:new 0 0 80 80;" xml:space="preserve">
<style type="text/css">
	.st0{fill:url(#Ellipse_8-2_1_);}
	.st1{fill:#FFFFFF;stroke:#FFFFFF;stroke-width:3;}
</style>
<g id="Button" transform="translate(13.5 6.5)">
	<g transform="matrix(1, 0, 0, 1, -13.5, -6.5)">
		
			<linearGradient id="Ellipse_8-2_1_" gradientUnits="userSpaceOnUse" x1="-629.6638" y1="418.397" x2="-629.0598" y2="417.593" gradientTransform="matrix(53 0 0 -53 33397.5 22188.5)">
			<stop  offset="0" style="stop-color:#F857C3"/>
			<stop  offset="1" style="stop-color:#E0139C"/>
		</linearGradient>
		<circle id="Ellipse_8-2" class="st0" cx="40" cy="33" r="26.5"/>
	</g>
	<g id="add" transform="translate(14.309 14.309)">
		<g id="Group_15" transform="translate(11.404)">
			<g id="Group_14">
				<path id="Path_77" class="st1" d="M9.7,3.5c-0.4-0.4-1-0.4-1.4,0l-16,16.3c-0.4,0.4-0.4,1,0,1.4s1,0.4,1.4,0L9.7,5
					C10.1,4.6,10.1,3.9,9.7,3.5z"/>
			</g>
		</g>
		<g id="Group_17" transform="translate(0 11.404)">
			<g id="Group_16">
				<path id="Path_78" class="st1" d="M21.3,8.3L5-7.7c-0.4-0.4-1-0.4-1.4,0s-0.4,1,0,1.4l16.3,16c0.4,0.4,1,0.4,1.4,0
					C21.7,9.3,21.7,8.6,21.3,8.3z"/>
			</g>
		</g>
	</g>
</g>
</svg>
