<svg id="Layer_1" data-name="Layer 1" xmlns="http://www.w3.org/2000/svg" viewBox="0 0 21.3 21.39"><defs><style>.cls-1{fill:#f70606;stroke:#f90000;stroke-width:3px;}</style></defs><title>ButtonClose</title><g id="Button"><g id="add"><g id="Group_15" data-name="Group 15"><g id="Group_14" data-name="Group 14"><path id="Path_77" data-name="Path 77" class="cls-1" d="M35.41,17.81a1,1,0,0,0-1.4,0L18,34.11a1,1,0,1,0,1.2,1.6,1,1,0,0,0,.2-.2l16-16.2A1.09,1.09,0,0,0,35.41,17.81Z" transform="translate(-16.01 -16.02)"/></g></g><g id="Group_17" data-name="Group 17"><g id="Group_16" data-name="Group 16"><path id="Path_78" data-name="Path 78" class="cls-1" d="M35.61,34,19.31,18a1,1,0,1,0-1.6,1.2,1,1,0,0,0,.2.2l16.3,16a1,1,0,0,0,1.4-.2A1,1,0,0,0,35.61,34Z" transform="translate(-16.01 -16.02)"/></g></g></g></g></svg>