<svg xmlns="http://www.w3.org/2000/svg" viewBox="0 0 119.956 164.94">
  <defs>
    <style>
      .cls-10 {
        fill: #d5daff;
      }

      .cls-22 {
        fill: none;
      }

      .cls-33 {
        fill: #e4e7fb;
      }

      .cls-40 {
        fill: #c2cbff;
      }

      .cls-50 {
        fill: #7d8fac;
      }
    </style>
  </defs>
  <g id="Group_22" data-name="Group 12" transform="translate(-128 -171.564)">
    <g id="clipboard_4_" data-name="clipboard (4)" transform="translate(127.922 171.564)">
      <path id="Path_61" data-name="Path 61" class="cls-10" d="M15.073,87.816H105.04a14.994,14.994,0,0,1,14.995,14.995V215.27a14.994,14.994,0,0,1-14.995,14.995H15.073A14.994,14.994,0,0,1,.078,215.27V102.811A15,15,0,0,1,15.073,87.816Zm0,0" transform="translate(0 -65.325)"/>
      <path id="Path_64" data-name="Path 64" class="cls-33" d="M146.4,238.527l-18.1,18.1a7.5,7.5,0,0,1-5.3,2.2H66.121a7.5,7.5,0,0,1-7.5-7.5V153.861a7.5,7.5,0,0,1,7.5-7.5H141.1a7.5,7.5,0,0,1,7.5,7.5v79.365A7.494,7.494,0,0,1,146.4,238.527Zm0,0" transform="translate(-43.552 -108.877)"/>
      <path id="Path_66" data-name="Path 66" class="cls-40" d="M95.392,146.363h59.979a7.5,7.5,0,0,1,0,14.995H95.392a7.5,7.5,0,1,1,0-14.995Zm0,0" transform="translate(-65.325 -108.877)"/>
      <path id="Path_73" data-name="Path 73" class="cls-50" d="M151.622,22.491h-3.749a22.492,22.492,0,0,0-44.984,0H99.141a11.246,11.246,0,1,0,0,22.492h52.481a11.246,11.246,0,0,0,0-22.492Zm-26.241,7.5a7.5,7.5,0,1,1,7.5-7.5A7.5,7.5,0,0,1,125.381,29.989Zm0,0" transform="translate(-65.325)"/>
    </g>
  </g>
</svg>
